<?xml version="1.0" encoding="UTF-8" standalone="no"?>
<svg
   xmlns:dc="http://purl.org/dc/elements/1.1/"
   xmlns:cc="http://creativecommons.org/ns#"
   xmlns:rdf="http://www.w3.org/1999/02/22-rdf-syntax-ns#"
   xmlns:svg="http://www.w3.org/2000/svg"
   xmlns="http://www.w3.org/2000/svg"
   xmlns:sodipodi="http://sodipodi.sourceforge.net/DTD/sodipodi-0.dtd"
   xmlns:inkscape="http://www.inkscape.org/namespaces/inkscape"
   width="447.71201mm"
   height="286.69601mm"
   viewBox="0 0 447.71201 286.69601"
   version="1.1"
   id="svg2385"
   inkscape:version="1.0beta2 (unknown)"
   sodipodi:docname="browser_wireframe.svg">
  <defs
     id="defs2379">
    <clipPath
       clipPathUnits="userSpaceOnUse"
       id="clipPath907">
      <rect
         style="fill:#008000;fill-opacity:1;stroke:none;stroke-width:0.4;stroke-miterlimit:4;stroke-dasharray:none;stroke-opacity:1"
         id="rect909"
         width="3.5518816"
         height="3.439106"
         x="17.559132"
         y="40.998829"
         ry="0.0041192183" />
    </clipPath>
  </defs>
  <sodipodi:namedview
     id="base"
     pagecolor="#ffffff"
     bordercolor="#666666"
     borderopacity="1.0"
     inkscape:pageopacity="0.0"
     inkscape:pageshadow="2"
     inkscape:zoom="0.24748737"
     inkscape:cx="1648.5184"
     inkscape:cy="514.93943"
     inkscape:document-units="mm"
     inkscape:current-layer="layer1"
     inkscape:document-rotation="0"
     showgrid="false"
     inkscape:window-width="1329"
     inkscape:window-height="709"
     inkscape:window-x="37"
     inkscape:window-y="339"
     inkscape:window-maximized="1" />
  <metadata
     id="metadata2382">
    <rdf:RDF>
      <cc:Work
         rdf:about="">
        <dc:format>image/svg+xml</dc:format>
        <dc:type
           rdf:resource="http://purl.org/dc/dcmitype/StillImage" />
        <dc:title></dc:title>
      </cc:Work>
    </rdf:RDF>
  </metadata>
  <g
     inkscape:label="Camada 1"
     inkscape:groupmode="layer"
     id="layer1">
    <g
       style="opacity:1"
       inkscape:export-ydpi="95"
       inkscape:export-xdpi="95"
       inkscape:export-filename="/home/regis/Imagens/frame.png"
       id="g1432"
       transform="matrix(1.3441737,0,0,1.3441737,-70.579802,424.17593)">
      <g
         id="g1387"
         transform="translate(85.704672,-343.53334)"
         style="opacity:1">
        <rect
           style="opacity:1;fill:#d5d8dc;fill-opacity:1;stroke:none;stroke-width:0.397079;stroke-miterlimit:4;stroke-dasharray:none;stroke-opacity:1"
           id="rect911"
           width="333.07593"
           height="213.28801"
           x="-33.160858"
           y="28.004211"
           ry="0.62392783" />
        <rect
           ry="0"
           y="37.907616"
           x="-32.374393"
           height="10.01171"
           width="331.43954"
           id="rect42"
           style="opacity:1;fill:#f3f3f3;fill-opacity:1;stroke:none;stroke-width:0.466123" />
        <path
           sodipodi:nodetypes="cccccccccc"
           inkscape:connector-curvature="0"
           id="path896"
           d="m -19.229273,41.01296 c 4.34e-4,0.08985 8.67e-4,0.179705 0.0013,0.269557 4.6e-5,1.194068 9.1e-5,2.388135 1.36e-4,3.582203 0.823422,-0.646928 1.646844,-1.293856 2.470265,-1.940784 -0.13925,-0.107662 -0.278501,-0.215324 -0.417752,-0.322986 -0.684649,-0.52933 -1.369299,-1.05866 -2.053949,-1.58799 z m 0.2644,0.55374 1.777545,1.358894 -1.775328,1.410791 z"
           style="color:#000000;font-style:normal;font-variant:normal;font-weight:normal;font-stretch:normal;font-size:medium;line-height:normal;font-family:sans-serif;font-variant-ligatures:normal;font-variant-position:normal;font-variant-caps:normal;font-variant-numeric:normal;font-variant-alternates:normal;font-variant-east-asian:normal;font-feature-settings:normal;font-variation-settings:normal;text-indent:0;text-align:start;text-decoration:none;text-decoration-line:none;text-decoration-style:solid;text-decoration-color:#000000;letter-spacing:normal;word-spacing:normal;text-transform:none;writing-mode:lr-tb;direction:ltr;text-orientation:mixed;dominant-baseline:auto;baseline-shift:baseline;text-anchor:start;white-space:normal;shape-padding:0;shape-margin:0;inline-size:0;clip-rule:nonzero;display:inline;overflow:visible;visibility:visible;opacity:1;isolation:auto;mix-blend-mode:normal;color-interpolation:sRGB;color-interpolation-filters:linearRGB;solid-color:#000000;solid-opacity:1;vector-effect:none;fill:#000000;fill-opacity:1;fill-rule:nonzero;stroke:none;stroke-width:0.264583px;stroke-linecap:butt;stroke-linejoin:miter;stroke-miterlimit:4;stroke-dasharray:none;stroke-dashoffset:0;stroke-opacity:1;color-rendering:auto;image-rendering:auto;shape-rendering:auto;text-rendering:auto;enable-background:accumulate;stop-color:#000000;stop-opacity:1" />
        <path
           style="color:#000000;font-style:normal;font-variant:normal;font-weight:normal;font-stretch:normal;font-size:medium;line-height:normal;font-family:sans-serif;font-variant-ligatures:normal;font-variant-position:normal;font-variant-caps:normal;font-variant-numeric:normal;font-variant-alternates:normal;font-variant-east-asian:normal;font-feature-settings:normal;font-variation-settings:normal;text-indent:0;text-align:start;text-decoration:none;text-decoration-line:none;text-decoration-style:solid;text-decoration-color:#000000;letter-spacing:normal;word-spacing:normal;text-transform:none;writing-mode:lr-tb;direction:ltr;text-orientation:mixed;dominant-baseline:auto;baseline-shift:baseline;text-anchor:start;white-space:normal;shape-padding:0;shape-margin:0;inline-size:0;clip-rule:nonzero;display:inline;overflow:visible;visibility:visible;opacity:1;isolation:auto;mix-blend-mode:normal;color-interpolation:sRGB;color-interpolation-filters:linearRGB;solid-color:#000000;solid-opacity:1;vector-effect:none;fill:#000000;fill-opacity:1;fill-rule:nonzero;stroke:none;stroke-width:0.264583px;stroke-linecap:butt;stroke-linejoin:miter;stroke-miterlimit:4;stroke-dasharray:none;stroke-dashoffset:0;stroke-opacity:1;color-rendering:auto;image-rendering:auto;shape-rendering:auto;text-rendering:auto;enable-background:accumulate;stop-color:#000000;stop-opacity:1"
           d="m -25.381525,40.98949 -0.0013,0.269557 -1.36e-4,3.582203 -2.470265,-1.940784 0.417752,-0.322986 z m -0.264286,0.537766 -1.777659,1.374868 1.775442,1.394817 z"
           id="path896-6"
           inkscape:connector-curvature="0"
           sodipodi:nodetypes="cccccccccc" />
        <g
           id="g879">
          <path
             sodipodi:nodetypes="cssccccsscccc"
             inkscape:connector-curvature="0"
             id="path873"
             d="m -9.1972656,41.191406 c -0.390757,-0.08444 -0.8097964,-0.03849 -1.1875004,0.150391 -0.755407,0.377762 -1.147055,1.231603 -0.941406,2.050781 0.20565,0.819179 0.954566,1.387107 1.7988282,1.363281 0.8442617,-0.02383 1.5002642,-0.705986 1.6593885,-1.535458 h -0.3520689 c -0.1255775,0.654602 -0.6508118,1.133839 -1.3170852,1.152642 -0.6662736,0.0188 -1.2537216,-0.42774 -1.4160156,-1.074219 -0.162294,-0.646478 0.146036,-1.31516 0.742187,-1.613281 0.5961525,-0.298122 1.3164591,-0.142671 1.7363286,0.375 l 0.296875,-0.242188 c -0.2660167,-0.32798 -0.6287742,-0.542515 -1.0195312,-0.626953 z"
             style="color:#000000;font-style:normal;font-variant:normal;font-weight:normal;font-stretch:normal;font-size:medium;line-height:normal;font-family:sans-serif;font-variant-ligatures:normal;font-variant-position:normal;font-variant-caps:normal;font-variant-numeric:normal;font-variant-alternates:normal;font-variant-east-asian:normal;font-feature-settings:normal;font-variation-settings:normal;text-indent:0;text-align:start;text-decoration:none;text-decoration-line:none;text-decoration-style:solid;text-decoration-color:#000000;letter-spacing:normal;word-spacing:normal;text-transform:none;writing-mode:lr-tb;direction:ltr;text-orientation:mixed;dominant-baseline:auto;baseline-shift:baseline;text-anchor:start;white-space:normal;shape-padding:0;shape-margin:0;inline-size:0;clip-rule:nonzero;display:inline;overflow:visible;visibility:visible;opacity:1;isolation:auto;mix-blend-mode:normal;color-interpolation:sRGB;color-interpolation-filters:linearRGB;solid-color:#000000;solid-opacity:1;vector-effect:none;fill:#000000;fill-opacity:1;fill-rule:nonzero;stroke:none;stroke-width:0.384282;stroke-linecap:butt;stroke-linejoin:miter;stroke-miterlimit:4;stroke-dasharray:none;stroke-dashoffset:0;stroke-opacity:1;color-rendering:auto;image-rendering:auto;shape-rendering:auto;text-rendering:auto;enable-background:accumulate;stop-color:#000000;stop-opacity:1" />
          <circle
             style="fill:#000000;fill-opacity:1;stroke:none;stroke-width:1.15362"
             id="path892"
             cx="-8.3841133"
             cy="41.917595"
             r="0.60627717" />
        </g>
        <rect
           style="fill:none;fill-opacity:1;stroke:#000000;stroke-width:0.378774;stroke-miterlimit:4;stroke-dasharray:none;stroke-opacity:1"
           id="rect881"
           width="2.2364635"
           height="3.2095888"
           x="18.120407"
           y="41.418255"
           ry="0.0041192248"
           clip-path="url(#clipPath907)" />
        <rect
           ry="0"
           y="32.067951"
           x="-12.216135"
           height="2.2877738"
           width="2.1820405"
           id="rect867"
           style="opacity:1;fill:none;fill-opacity:1;stroke:#606268;stroke-width:0.35749;stroke-miterlimit:4;stroke-dasharray:none;stroke-opacity:1" />
        <path
           style="display:inline;fill:#000000;fill-opacity:1;stroke:none;stroke-width:0.264725px;stroke-linecap:butt;stroke-linejoin:miter;stroke-opacity:1"
           d="m 17.930762,44.43407 -0.0024,0.478435 0.37932,5.5e-4 0.900617,-0.682425 h 0.125199 l 0.835759,0.711042 0.379141,-0.0023 -0.0016,-0.505051 -0.368944,-0.0047 -0.731091,-0.531867 -0.394952,6e-6 -0.749523,0.537913 z"
           id="path893"
           inkscape:connector-curvature="0"
           sodipodi:nodetypes="ccccccccccccc" />
        <rect
           y="34.2033"
           x="-20.710299"
           height="0.17458646"
           width="2.1877272"
           id="rect869"
           style="opacity:1;fill:none;fill-opacity:1;stroke:#606268;stroke-width:0.306147;stroke-miterlimit:4;stroke-dasharray:none;stroke-opacity:1" />
        <g
           id="g924">
          <rect
             style="opacity:1;fill:none;fill-opacity:1;stroke:#606268;stroke-width:0.398463;stroke-miterlimit:4;stroke-dasharray:none;stroke-opacity:1"
             id="rect905"
             width="2.8003194"
             height="0.061958436"
             x="41.991615"
             y="-3.4027503"
             transform="rotate(134.65495)" />
          <rect
             transform="matrix(0.7028356,0.71135231,0.71135231,-0.7028356,0,0)"
             y="-43.318592"
             x="2.5464964"
             height="0.061958436"
             width="2.8003194"
             id="rect905-7"
             style="opacity:1;fill:none;fill-opacity:1;stroke:#606268;stroke-width:0.398463;stroke-miterlimit:4;stroke-dasharray:none;stroke-opacity:1" />
        </g>
        <rect
           ry="0"
           y="47.919327"
           x="-32.374393"
           height="192.44949"
           width="331.43954"
           id="rect1370"
           style="opacity:1;fill:#999999;fill-opacity:1;stroke:none;stroke-width:1.09346;stroke-miterlimit:4;stroke-dasharray:none;stroke-opacity:1" />
      </g>
      <rect
         style="opacity:1;fill:none;fill-opacity:1;stroke:#faae94;stroke-width:0.799382;stroke-miterlimit:4;stroke-dasharray:none;stroke-opacity:1"
         id="rect1389"
         width="216.29666"
         height="7.1025391"
         x="111.09136"
         y="-304.02634"
         ry="0.32802051" />
    </g>
    <g
       transform="matrix(1.3441737,0,0,1.3441737,222.66336,374.19949)"
       id="g2256">
      <rect
         style="opacity:1;fill:#6e6e6e;fill-opacity:1;stroke:#faae94;stroke-width:0;stroke-miterlimit:4;stroke-dasharray:none;stroke-opacity:1"
         id="rect2230"
         width="2.2726762"
         height="0.47523296"
         x="-2.2597642"
         y="-368.89728"
         ry="0"
         rx="0" />
      <rect
         rx="0"
         ry="0"
         y="-367.55621"
         x="-2.2597642"
         height="0.47523296"
         width="2.2726762"
         id="rect2230-1"
         style="opacity:1;fill:#6e6e6e;fill-opacity:1;stroke:#faae94;stroke-width:0;stroke-miterlimit:4;stroke-dasharray:none;stroke-opacity:1" />
      <rect
         rx="0"
         ry="0"
         y="-366.21515"
         x="-2.2597642"
         height="0.47523296"
         width="2.2726762"
         id="rect2230-2"
         style="opacity:1;fill:#6e6e6e;fill-opacity:1;stroke:#faae94;stroke-width:0;stroke-miterlimit:4;stroke-dasharray:none;stroke-opacity:1" />
    </g>
    <rect
       ry="0"
       y="-122.43774"
       x="212.91849"
       height="5.6997294"
       width="0.42665261"
       id="rect2258"
       style="opacity:0.366222;fill:#6e6e6e;fill-opacity:1;stroke:#faae94;stroke-width:0;stroke-miterlimit:4;stroke-dasharray:none;stroke-opacity:1" />
    <rect
       style="opacity:0.366222;fill:#6e6e6e;fill-opacity:1;stroke:#faae94;stroke-width:0;stroke-miterlimit:4;stroke-dasharray:none;stroke-opacity:1"
       id="rect2258-7"
       width="0.42665261"
       height="5.6997294"
       x="126.07736"
       y="-122.30472"
       ry="0" />
    <g
       transform="matrix(1.3441737,0,0,1.3441737,222.55467,374.2262)"
       id="g2290">
      <path
         style="opacity:1;fill:#9a9c9e;fill-opacity:1;stroke:none;stroke-width:0.264583px;stroke-linecap:butt;stroke-linejoin:miter;stroke-opacity:1"
         d="m -67.904976,-369.58338 c 0,0.0557 -0.207671,0.0916 -0.207671,0.0916 0,0 -0.209989,0.0254 -0.249552,0.11009 -0.03956,0.0846 -0.264168,0.15158 -0.338278,0.20916 -0.07411,0.0575 -0.149831,0.34438 -0.149831,0.34438 0,0 -0.104735,0.2372 -0.01783,0.31988 0.08692,0.0827 0.0464,0.52252 0.0464,0.52252 0,0 0.0024,0.28263 0.05851,0.37968 0.05624,0.0971 0.08821,0.0484 0.104855,0.18897 0.01664,0.14057 -0.0395,0.50678 -0.01643,0.56975 0.02307,0.0629 0.163751,0.17328 0.188553,0.24492 0.02479,0.0717 0.04961,0.16918 0.06614,0.27578 0.01654,0.1066 0.124124,0.2141 0.17363,0.28821 0.04951,0.0741 0.209704,0.28924 0.251561,0.29628 0.04185,0.007 0.116705,-0.009 0.224192,0.0981 0.107487,0.1075 0.173873,0.13237 0.297841,0.23995 0.123965,0.10761 0.21603,0.13271 0.280583,0.20635 0.06455,0.0736 0.09876,0.18108 0.163065,0.22127 0.06431,0.0402 0.123061,0.14679 0.286674,0.1469 0.16361,10e-5 0.264083,-0.18204 0.289107,-0.24392 0.02503,-0.0619 0.03996,-0.0499 0.190087,-0.15301 0.150128,-0.10308 0.223385,-0.20082 0.456277,-0.30689 0.232891,-0.10607 0.408636,-0.13214 0.450625,-0.35806 0.04199,-0.2259 0.08487,-0.1727 0.125405,-0.45157 0.04054,-0.27887 0.0421,-0.37377 0.133731,-0.58205 0.09163,-0.20831 0.06973,-0.15068 0.182673,-0.39849 0.112946,-0.24779 0.183034,-0.32356 0.228203,-0.58555 0.04517,-0.26197 0.04517,-0.53107 0.04517,-0.6032 0,-0.0721 -0.175318,-0.61804 -0.175318,-0.61804 0,0 0.07657,-0.10255 -0.168746,-0.19365 -0.245322,-0.0911 -0.56234,-0.23193 -0.609746,-0.23193 -0.0474,0 -0.252814,0.0991 -0.252814,0.0991 0,0 -0.05491,-0.0855 -0.07994,-0.16378 -0.02503,-0.0783 0.009,-0.21852 -0.08244,-0.21852 -0.09144,0 -0.420343,0.0156 -0.467201,0 -0.04686,-0.0156 -0.455409,-0.0246 -0.640895,-0.0246 -0.185489,0 -0.594262,0.0423 -0.594262,0.0423 0,0 -0.08432,0.0403 -0.100856,0.0869 -0.01654,0.0466 -0.09148,0.15121 -0.09148,0.15121 z"
         id="path2281"
         inkscape:connector-curvature="0" />
      <path
         style="opacity:1;fill:#ffffff;fill-opacity:1;stroke:none;stroke-width:0.065;stroke-linecap:butt;stroke-linejoin:miter;stroke-miterlimit:4;stroke-dasharray:none;stroke-opacity:1"
         d="m -67.929487,-368.73997 -0.0708,0.27371 -0.06764,0.0214 -0.09376,0.0615 -0.09137,0.14947 -0.0043,0.20357 c 0,0 0.01532,0.0413 0.04435,0.0638 0.02904,0.0225 0.193207,0.10929 0.193207,0.10929 0,0 -0.06498,0.0428 -0.0083,0.087 0.05672,0.0443 0.266459,0.204 0.282791,0.23233 0.01633,0.0283 0.02051,0.20638 0.02051,0.22395 0,0.0175 -0.0016,0.50866 -0.0016,0.50866 0,0 0.0079,0.11681 0.01614,0.13639 0.0083,0.0196 0.359836,0.36917 0.359836,0.36917 l 0.287919,0.25035 c 0,0 0.18614,0.0947 0.205455,0.0947 0.01931,0 0.337132,-0.14943 0.337132,-0.14943 0,0 0.172527,-0.15714 0.206441,-0.19394 0.03392,-0.0368 0.104883,-0.14626 0.136863,-0.17582 0.03198,-0.0295 0.236017,-0.26376 0.236017,-0.26376 l 0.138721,-0.13047 0.145555,-0.19828 -0.01466,-0.41785 0.124349,-0.18656 0.260964,-0.0927 c 0,0 0.0051,-0.15462 0.01106,-0.18243 0.0059,-0.0278 0.06505,-0.11216 0.0613,-0.18793 -0.0038,-0.0757 -0.02466,-0.22972 -0.02466,-0.22972 0,0 -0.254362,-0.18457 -0.26021,-0.21082 -0.0058,-0.0262 -0.207372,-0.20682 -0.207372,-0.20682 l -0.06793,-0.0921 -2.070658,-0.006 z"
         id="path2275"
         inkscape:connector-curvature="0" />
      <path
         style="fill:#6e6e6e;fill-opacity:1;stroke:none;stroke-width:0.264684px;stroke-linecap:butt;stroke-linejoin:miter;stroke-opacity:1"
         d="m -66.962451,-367.23838 c -0.0083,0.0725 -0.09617,0.30427 -0.09617,0.30427 l -0.07377,0.11505 c 0,0 -0.257702,0.05 -0.32151,0.05 -0.06381,0 -0.272474,-0.0359 -0.272474,-0.0359 l 0.0073,0.13539 0.36865,0.36984 c 0,0 0.05594,-0.1894 0.127859,-0.22994 0.07192,-0.0405 0.278686,-0.13191 0.278686,-0.13191 0,0 0.06919,-0.19631 0.0757,-0.1341 0.0065,0.0622 -0.01283,0.10121 0.04927,0.1359 0.06211,0.0347 0.155239,0.0249 0.218945,0.0573 0.06371,0.0323 0.238345,0.0991 0.238345,0.0991 l 0.07823,0.0846 0.06497,-0.004 0.277801,-0.3147 c 0,0 -0.209741,0.0451 -0.279828,0.007 -0.07009,-0.0379 -0.321661,-0.2061 -0.321661,-0.2061 0,0 0.181913,0.0465 -0.04713,-0.11319 -0.229044,-0.1597 -0.262938,-0.18493 -0.262938,-0.18493 z"
         id="path2283"
         inkscape:connector-curvature="0"
         sodipodi:nodetypes="cccsccccccccccccccccc" />
      <path
         style="fill:#6e6e6e;fill-opacity:1;stroke:none;stroke-width:0.264583px;stroke-linecap:butt;stroke-linejoin:miter;stroke-opacity:1"
         d="m -67.599758,-368.50349 c 0,0 0.0068,0.24289 0.03193,0.25361 0.02516,0.0106 0.379614,0 0.379614,0 l 0.05267,0.0703 -0.0223,0.18997 c 0,0 -0.04067,0.29509 -0.02668,0.33782 0.014,0.0427 0.02125,0.20498 0.02125,0.20498 h 0.19131 0.141475 c 0,0 0.292613,0.006 0.331674,0 0.03906,-0.006 0.131746,0.0279 0.133307,-0.0593 0.0016,-0.0872 0.03131,-0.2845 0.03131,-0.2845 l 0.02347,-0.18545 -0.02495,-0.13941 -0.09568,0.12457 -0.05283,0.23754 -0.03405,0.16629 h -0.245636 l -0.180105,-0.0188 c 0,0 -0.08399,-0.004 -0.100301,-0.0427 -0.0163,-0.0384 0.04755,-0.31906 0.04755,-0.35838 0,-0.0393 0.02903,-0.24019 0.02903,-0.27365 0,-0.0335 0,-0.14272 0,-0.14272 0,0 -0.09424,-0.0627 -0.184526,-0.0627 -0.09029,0 -0.299064,-0.0153 -0.299064,-0.0153 z"
         id="path2277"
         inkscape:connector-curvature="0" />
      <path
         style="fill:#6e6e6e;fill-opacity:1;stroke:none;stroke-width:0.332251px;stroke-linecap:butt;stroke-linejoin:miter;stroke-opacity:1"
         d="m -66.666349,-368.36933 0.236841,0.10797 0.09383,0.14589 c 0,0 0.09413,-0.16513 0.127204,-0.16824 0.03309,-0.004 0.0333,-0.12132 0.0333,-0.12132 l -0.146432,-0.13024 -0.17813,0.0905 z"
         id="path2279"
         inkscape:connector-curvature="0" />
    </g>
  </g>
</svg>
